<?xml version="1.0" encoding="UTF-8" standalone="no"?>
<!-- Created with Inkscape (http://www.inkscape.org/) -->

<svg
   xmlns:osb="http://www.openswatchbook.org/uri/2009/osb"
   xmlns:dc="http://purl.org/dc/elements/1.1/"
   xmlns:cc="http://creativecommons.org/ns#"
   xmlns:rdf="http://www.w3.org/1999/02/22-rdf-syntax-ns#"
   xmlns:svg="http://www.w3.org/2000/svg"
   xmlns="http://www.w3.org/2000/svg"
   xmlns:xlink="http://www.w3.org/1999/xlink"
   xmlns:sodipodi="http://sodipodi.sourceforge.net/DTD/sodipodi-0.dtd"
   xmlns:inkscape="http://www.inkscape.org/namespaces/inkscape"
   version="1.1"
   id="svg2"
   width="119.1142"
   height="119.29847"
   viewBox="0 0 119.11421 119.29847"
   sodipodi:docname="plus.svg"
   inkscape:version="0.92.2 5c3e80d, 2017-08-06">
  <metadata
     id="metadata8">
    <rdf:RDF>
      <cc:Work
         rdf:about="">
        <dc:format>image/svg+xml</dc:format>
        <dc:type
           rdf:resource="http://purl.org/dc/dcmitype/StillImage" />
        <dc:title></dc:title>
      </cc:Work>
    </rdf:RDF>
  </metadata>
  <defs
     id="defs6">
    <pattern
       inkscape:collect="always"
       xlink:href="#Strips1_1"
       id="pattern7437"
       patternTransform="matrix(10,0,0,10,-596.94418,-214.80673)" />
    <pattern
       inkscape:stockid="Stripes 1:1"
       id="Strips1_1"
       patternTransform="translate(0,0) scale(10,10)"
       height="1"
       width="2"
       patternUnits="userSpaceOnUse"
       inkscape:collect="always">
      <rect
         id="rect1679"
         height="2"
         width="1"
         y="-0.5"
         x="0"
         style="fill:black;stroke:none" />
    </pattern>
    <linearGradient
       id="linearGradient955"
       osb:paint="solid">
      <stop
         style="stop-color:#000000;stop-opacity:1;"
         offset="0"
         id="stop953" />
    </linearGradient>
    <meshgradient
       inkscape:collect="always"
       id="meshgradient2520"
       gradientUnits="userSpaceOnUse"
       x="597.44415"
       y="215.30673">
      <meshrow
         id="meshrow2522">
        <meshpatch
           id="meshpatch2524">
          <stop
             path="c 39.3714,0  78.7428,0  118.114,0"
             style="stop-color:#ffffff;stop-opacity:1"
             id="stop2526" />
          <stop
             path="c 0,39.4328  0,78.8656  0,118.298"
             style="stop-color:#61dafb;stop-opacity:1"
             id="stop2528" />
          <stop
             path="c -39.3714,0  -78.7428,0  -118.114,0"
             style="stop-color:#ffffff;stop-opacity:1"
             id="stop2530" />
          <stop
             path="c 0,-39.4328  0,-78.8656  0,-118.298"
             style="stop-color:#61dafb;stop-opacity:1"
             id="stop2532" />
        </meshpatch>
      </meshrow>
    </meshgradient>
  </defs>
  <sodipodi:namedview
     pagecolor="#ffffff"
     bordercolor="#666666"
     borderopacity="1"
     objecttolerance="10"
     gridtolerance="10"
     guidetolerance="10"
     inkscape:pageopacity="0"
     inkscape:pageshadow="2"
     inkscape:window-width="1920"
     inkscape:window-height="924"
     id="namedview4"
     showgrid="false"
     showguides="true"
     inkscape:zoom="1.18"
     inkscape:cx="-229.24666"
     inkscape:cy="183.55154"
     inkscape:window-x="0"
     inkscape:window-y="0"
     inkscape:window-maximized="1"
     inkscape:current-layer="svg2"
     inkscape:pagecheckerboard="true"
     fit-margin-top="0"
     fit-margin-left="0"
     fit-margin-right="0"
     fit-margin-bottom="0" />
  <g
     id="g88"
     style="display:inline;opacity:1;fill:#61dafb;fill-opacity:1;stroke:url(#Strips1_1)"
     transform="translate(-772.64416,-292.80673)"
     inkscape:label="React">
    <path
       id="path82"
       d="m 666.3,296.5 c 0,-32.5 -40.7,-63.3 -103.1,-82.4 14.4,-63.6 8,-114.2 -20.2,-130.4 -6.5,-3.8 -14.1,-5.6 -22.4,-5.6 v 22.3 c 4.6,0 8.3,0.9 11.4,2.6 13.6,7.8 19.5,37.5 14.9,75.7 -1.1,9.4 -2.9,19.3 -5.1,29.4 -19.6,-4.8 -41,-8.5 -63.5,-10.9 -13.5,-18.5 -27.5,-35.3 -41.6,-50 32.6,-30.3 63.2,-46.9 84,-46.9 V 78 C 493.2,78 457.2,97.6 420.8,131.6 384.4,97.8 348.4,78.4 320.9,78.4 v 22.3 c 20.7,0 51.4,16.5 84,46.6 -14,14.7 -28,31.4 -41.3,49.9 -22.6,2.4 -44,6.1 -63.6,11 -2.3,-10 -4,-19.7 -5.2,-29 -4.7,-38.2 1.1,-67.9 14.6,-75.8 3,-1.8 6.9,-2.6 11.5,-2.6 V 78.5 c -8.4,0 -16,1.8 -22.6,5.6 -28.1,16.2 -34.4,66.7 -19.9,130.1 -62.2,19.2 -102.7,49.9 -102.7,82.3 0,32.5 40.7,63.3 103.1,82.4 -14.4,63.6 -8,114.2 20.2,130.4 6.5,3.8 14.1,5.6 22.5,5.6 27.5,0 63.5,-19.6 99.9,-53.6 36.4,33.8 72.4,53.2 99.9,53.2 8.4,0 16,-1.8 22.6,-5.6 28.1,-16.2 34.4,-66.7 19.9,-130.1 62,-19.1 102.5,-49.9 102.5,-82.3 z M 536.1,229.8 c -3.7,12.9 -8.3,26.2 -13.5,39.5 -4.1,-8 -8.4,-16 -13.1,-24 -4.6,-8 -9.5,-15.8 -14.4,-23.4 14.2,2.1 27.9,4.7 41,7.9 z m -45.8,106.5 c -7.8,13.5 -15.8,26.3 -24.1,38.2 -14.9,1.3 -30,2 -45.2,2 -15.1,0 -30.2,-0.7 -45,-1.9 -8.3,-11.9 -16.4,-24.6 -24.2,-38 -7.6,-13.1 -14.5,-26.4 -20.8,-39.8 6.2,-13.4 13.2,-26.8 20.7,-39.9 7.8,-13.5 15.8,-26.3 24.1,-38.2 14.9,-1.3 30,-2 45.2,-2 15.1,0 30.2,0.7 45,1.9 8.3,11.9 16.4,24.6 24.2,38 7.6,13.1 14.5,26.4 20.8,39.8 -6.3,13.4 -13.2,26.8 -20.7,39.9 z m 32.3,-13 c 5.4,13.4 10,26.8 13.8,39.8 -13.1,3.2 -26.9,5.9 -41.2,8 4.9,-7.7 9.8,-15.6 14.4,-23.7 4.6,-8 8.9,-16.1 13,-24.1 z M 421.2,430 c -9.3,-9.6 -18.6,-20.3 -27.8,-32 9,0.4 18.2,0.7 27.5,0.7 9.4,0 18.7,-0.2 27.8,-0.7 -9,11.7 -18.3,22.4 -27.5,32 z m -74.4,-58.9 c -14.2,-2.1 -27.9,-4.7 -41,-7.9 3.7,-12.9 8.3,-26.2 13.5,-39.5 4.1,8 8.4,16 13.1,24 4.7,8 9.5,15.8 14.4,23.4 z M 420.7,163 c 9.3,9.6 18.6,20.3 27.8,32 -9,-0.4 -18.2,-0.7 -27.5,-0.7 -9.4,0 -18.7,0.2 -27.8,0.7 9,-11.7 18.3,-22.4 27.5,-32 z m -74,58.9 c -4.9,7.7 -9.8,15.6 -14.4,23.7 -4.6,8 -8.9,16 -13,24 -5.4,-13.4 -10,-26.8 -13.8,-39.8 13.1,-3.1 26.9,-5.8 41.2,-7.9 z m -90.5,125.2 c -35.4,-15.1 -58.3,-34.9 -58.3,-50.6 0,-15.7 22.9,-35.6 58.3,-50.6 8.6,-3.7 18,-7 27.7,-10.1 5.7,19.6 13.2,40 22.5,60.9 -9.2,20.8 -16.6,41.1 -22.2,60.6 -9.9,-3.1 -19.3,-6.5 -28,-10.2 z M 310,490 c -13.6,-7.8 -19.5,-37.5 -14.9,-75.7 1.1,-9.4 2.9,-19.3 5.1,-29.4 19.6,4.8 41,8.5 63.5,10.9 13.5,18.5 27.5,35.3 41.6,50 -32.6,30.3 -63.2,46.9 -84,46.9 -4.5,-0.1 -8.3,-1 -11.3,-2.7 z m 237.2,-76.2 c 4.7,38.2 -1.1,67.9 -14.6,75.8 -3,1.8 -6.9,2.6 -11.5,2.6 -20.7,0 -51.4,-16.5 -84,-46.6 14,-14.7 28,-31.4 41.3,-49.9 22.6,-2.4 44,-6.1 63.6,-11 2.3,10.1 4.1,19.8 5.2,29.1 z m 38.5,-66.7 c -8.6,3.7 -18,7 -27.7,10.1 -5.7,-19.6 -13.2,-40 -22.5,-60.9 9.2,-20.8 16.6,-41.1 22.2,-60.6 9.9,3.1 19.3,6.5 28.1,10.2 35.4,15.1 58.3,34.9 58.3,50.6 -0.1,15.7 -23,35.6 -58.4,50.6 z M 320.8,78.4 Z"
       inkscape:connector-curvature="0"
       style="fill:#61dafb;fill-opacity:1;stroke:url(#Strips1_1)" />
    <circle
       id="circle84"
       r="45.700001"
       cy="296.5"
       cx="420.89999"
       style="fill:#61dafb;fill-opacity:1;stroke:url(#Strips1_1)" />
    <path
       id="path86"
       d="M 520.5,78.1 Z"
       inkscape:connector-curvature="0"
       style="display:inline;fill:#61dafb;fill-opacity:1;stroke:url(#Strips1_1)" />
  </g>
  <g
     id="g115"
     transform="translate(214.24329,-175.74157)"
     style="display:inline;opacity:1;fill:#61dafb;fill-opacity:1;stroke:url(#Strips1_1)"
     inkscape:label="Coffee">
    <path
       inkscape:connector-curvature="0"
       id="path102"
       d="m 179.2104,347.32081 c -15.3794,-2.79054 -33.34424,-8.60918 -42.09176,-13.63312 -10.28095,-5.90464 -15.47569,-12.40649 -19.60266,-24.53515 -5.62157,-16.5211 -9.91072,-24.01096 -28.633009,-50 -9.401725,-13.05085 -20.85739,-31.35593 -25.457029,-40.67796 l -8.362983,-16.94916 4.587165,-3.84225 c 5.027001,-4.21067 23.508062,-10.5763 30.613156,-10.54441 6.591964,0.0296 20.38053,4.01027 28.79927,8.3142 9.83247,5.02667 11.16462,2.89362 2.80186,-4.48636 -11.74352,-10.36342 -23.356969,-14.69681 -38.983054,-14.54597 -8.254298,0.0797 -16.543398,1.24731 -21.186441,2.98439 -4.194915,1.56943 -8.834256,3.23991 -10.309646,3.71217 -2.089057,0.6687 -3.487538,-1.88723 -6.321238,-11.55299 -4.524597,-15.43342 -8.848169,-34.10775 -8.075651,-34.88026 0.319161,-0.31917 3.396447,1.3308 6.838412,3.66658 24.665672,16.73857 92.778978,28.15242 167.663528,28.09562 77.29982,-0.0586 145.29554,-12.00664 170.22087,-29.91069 3.87301,-2.78202 3.90296,-2.75949 2.82247,2.12295 -11.92854,53.90165 -23.26434,79.70594 -53.54351,121.88397 -17.6051,24.52344 -22.24434,32.97101 -25.4759,46.38904 -3.34218,13.87739 -17.884,25.99834 -39.58205,32.99261 -23.43974,7.55569 -61.701,9.93673 -86.7218,5.39679 z"
       style="display:inline;fill:#61dafb;fill-opacity:1;fill-rule:nonzero;stroke:url(#Strips1_1)" />
    <path
       inkscape:connector-curvature="0"
       id="path104"
       d="m 45.0494,298.86722 c -10.855703,-5.42466 -20.01638,-14.53528 -26.299062,-26.15536 -3.094322,-5.72307 -3.665592,-9.5532 -3.665592,-24.57627 0,-16.82448 0.311799,-18.41788 5.70805,-29.17006 5.155898,-10.27326 17.650394,-24.89627 24.591348,-28.78062 2.089676,-1.16945 3.210405,-0.26382 5.037681,4.07077 2.096185,4.9725 2.028738,5.94108 -0.62425,8.96466 -8.090065,9.22015 -10.984016,18.16086 -10.984016,33.93456 0,13.83051 0.526765,16.36044 5.516844,26.49618 7.975102,16.19884 26.187909,30.91867 42.65807,34.47682 l 5.802032,1.25344 -5.572897,2.34323 c -3.118522,1.31124 -11.339666,2.34323 -18.666908,2.34323 -11.222556,0 -14.581473,-0.74329 -23.5013,-5.20058 z"
       style="display:inline;fill:#61dafb;fill-opacity:1;fill-rule:nonzero;stroke:url(#Strips1_1)" />
    <path
       inkscape:connector-curvature="0"
       id="path106"
       d="M 161.69492,138.61846 C 125.77773,136.14249 82.518268,127.90389 60.159473,119.28142 31.738497,108.32113 26.29058,96.763331 44.193559,85.409597 c 9.762453,-6.191164 11.105753,-6.301441 8.990563,-0.738069 -4.632668,12.184843 12.384431,23.358302 47.493848,31.184532 36.68412,8.17725 50.65608,9.35457 111.01695,9.35457 60.31542,0 74.0943,-1.15833 111.01694,-9.3327 36.07897,-7.98758 53.65321,-18.943969 49.80989,-31.053205 -1.07812,-3.396838 -0.81887,-3.352015 4.60861,0.796789 7.96244,6.086543 10.61196,11.833213 8.04911,17.458056 -5.76886,12.66126 -41.4263,24.88114 -94.671,32.44393 -18.75186,2.66349 -105.00885,4.73596 -128.81355,3.09496 z"
       style="display:inline;fill:#61dafb;fill-opacity:1;fill-rule:nonzero;stroke:url(#Strips1_1)" />
    <path
       inkscape:connector-curvature="0"
       id="path108"
       d="m 231.36339,96.016688 c -11.80216,-4.698329 -13.82643,-12.099196 -4.3,-15.721139 3.7034,-1.408027 5.26258,-0.993968 9.41536,2.50037 6.11032,5.141498 13.97877,6.75342 25.77298,5.27983 16.77929,-2.096432 24.26129,-10.211437 16.27495,-17.651844 -4.32659,-4.030837 -10.52296,-5.339159 -25.28687,-5.339159 -18.04275,0 -27.75791,2.643732 -52.40728,14.261315 -28.92677,13.633573 -33.344,14.987551 -49.1684,15.07118 -19.08464,0.100859 -33.70825,-5.657936 -38.87291,-15.308195 -6.9172,-12.924905 5.60945,-22.713231 28.56471,-22.320475 12.04279,0.206048 17.64698,1.828051 18.31583,5.301088 0.47527,2.467887 -1.1801,2.691572 -14.39788,1.945541 -15.70319,-0.886311 -21.26095,0.598116 -24.93802,6.660719 -1.52894,2.52084 -1.01214,3.807066 2.89425,7.203389 4.10961,3.573014 6.44033,4.13459 17.15978,4.13459 15.0644,0 22.65674,-2.532795 40.62745,-13.553276 17.4282,-10.687785 28.93419,-14.727298 49.26152,-17.294693 37.49348,-4.735523 68.70419,7.199697 68.70419,26.273017 0,4.633317 -1.27825,7.041035 -5.88588,11.086573 -7.98434,7.010354 -15.52963,9.035578 -36.487,9.793444 -14.10006,0.50989 -19.34409,0.02752 -25.24678,-2.322275 z"
       style="display:inline;fill:#61dafb;fill-opacity:1;fill-rule:nonzero;stroke:url(#Strips1_1)" />
  </g>
  <text
     xml:space="preserve"
     style="font-style:normal;font-weight:normal;font-size:188.68789673px;line-height:1.25;font-family:sans-serif;letter-spacing:0px;word-spacing:0px;display:inline;opacity:1;fill:#61dafb;fill-opacity:1;stroke:url(#pattern7437)"
     x="-19.492809"
     y="118.79847"
     id="text119"
     inkscape:label="Plus"><tspan
       sodipodi:role="line"
       id="tspan117"
       x="-19.492809"
       y="118.79847"
       style="fill:#61dafb;fill-opacity:1;stroke:url(#pattern7437)">+</tspan></text>
</svg>
